# xmcd
#
# Track frame offsets: 
#        182
#        26787
#        45770
#        67730
#        87445
#        112697
#        133830
#        164372
#        199885
#        254910
#        273872
#
# Disc length: 3956 seconds
#
# Revision: 7
# Processed by: cddbd v1.5.2PL0 Copyright (c) Steve Scherf et al.
# Submitted via: ExactAudioCopy v0.99pb4
#
DISCID=930f720b
DTITLE=John Coltrane - The Heavyweight Champion - The Complete Atlanti
DTITLE=c Recordings (Jan 15, 1959-May 25, 1961) [CD3]
DYEAR=1995
DGENRE=Jazz
TTITLE0=Like Sonny (Coltrane Jazz - 12-02-59)
TTITLE1=Harmonique (Coltrane Jazz - 12-02-59)
TTITLE2=My Shining Hour (Coltrane Jazz - 12-02-59)
TTITLE3=Naima (Giant Steps - 12-02-59)
TTITLE4=Some Other Blues (Coltrane Jazz - 12-02-59)
TTITLE5=Fifth House (Coltrane Jazz - 12-02-59)
TTITLE6=Cherryco (The Avant-Garde - 06-28-60)
TTITLE7=The Blessing (The Avant-Garde - 06-28-60)
TTITLE8=Focus on Sanity (The Avant-Garde - 07-08-60)
TTITLE9=The Invisible (The Avant-Garde - 07-08-60)
TTITLE10=Bemsha Swing (The Avant-Garde - 07-08-60)
EXTD=YEAR: 1995
EXTT0=
EXTT1=
EXTT2=
EXTT3=
EXTT4=
EXTT5=
EXTT6=
EXTT7=
EXTT8=
EXTT9=
EXTT10=
PLAYORDER=
